<?xml version="1.0" encoding="utf-8"?>
<!-- Generator: Adobe Illustrator 26.0.1, SVG Export Plug-In . SVG Version: 6.00 Build 0)  -->
<svg version="1.1" id="Layer_1" xmlns="http://www.w3.org/2000/svg" xmlns:xlink="http://www.w3.org/1999/xlink" x="0px" y="0px"
	 viewBox="0 0 1920 1080" style="enable-background:new 0 0 1920 1080;" xml:space="preserve">
<style type="text/css">
	.st0{fill:#282424;}
	.st1{fill:#17B17A;}
	.st2{fill:#FBD303;}
</style>
<g>
	<g>
		<g>
			<path class="st0" d="M350.2,801.2c-4-4-8.7-7.4-14.1-10.3c-5.3-2.9-11-5.4-17-7.5c-6-2.1-12.1-3.9-18.3-5.5
				c-6.2-1.6-12.3-3.1-18-4.5c-4.9-1.1-9.8-2.3-14.7-3.6c-4.9-1.3-9.6-2.8-14-4.4c-4.4-1.6-8.6-3.5-12.4-5.6
				c-3.8-2.1-7.2-4.5-10-7.2c-2.8-2.7-5.1-5.8-6.7-9.3c-1.6-3.5-2.4-7.4-2.4-11.8c0-5.8,1.2-11.3,3.7-16.5c2.4-5.2,6.1-9.7,11-13.6
				c4.9-3.9,11-7,18.3-9.2c7.3-2.2,15.8-3.4,25.6-3.4c6.8,0,13,0.6,18.5,1.9c5.5,1.2,10.6,2.9,15.2,5c4.6,2.1,8.8,4.5,12.6,7.2
				c3.8,2.7,7.5,5.5,11,8.5c2.2,1.9,4,2.8,5.2,2.8c0.6,0,1.2-0.2,1.8-0.7c0.6-0.5,1.3-1.1,2.2-1.9c2-1.9,3.5-3.4,4.5-4.4
				c1-1,1.5-2,1.5-2.8c0-0.8-0.3-1.6-1-2.3c-0.7-0.7-1.6-1.8-2.9-3.1c-9.2-9.1-19.6-15.8-31.2-20.3c-11.6-4.5-24-6.7-37.1-6.7
				c-11.7,0-22.3,1.4-31.7,4.2c-9.5,2.8-17.6,6.8-24.2,12c-6.7,5.2-11.9,11.5-15.5,18.9c-3.6,7.4-5.5,15.7-5.5,24.8
				c0,7.7,1.5,14.5,4.5,20.4c3,5.9,7.5,11.1,13.6,15.7c6.1,4.6,13.7,8.6,23,12.1c9.2,3.5,20,6.6,32.4,9.4c5,1.1,10.1,2.3,15.4,3.5
				c5.3,1.2,10.5,2.7,15.5,4.3c5,1.6,9.8,3.5,14.3,5.6c4.5,2.2,8.4,4.7,11.8,7.6c3.4,2.9,6.1,6.4,8,10.3c1.9,3.9,2.9,8.5,2.9,13.5
				c0,8.8-1.9,16.3-5.8,22.5c-3.9,6.2-9,11.3-15.3,15.2c-6.3,4-13.4,6.8-21.3,8.6c-7.9,1.8-15.9,2.7-24,2.7
				c-5.8,0-11.6-0.6-17.5-1.9c-5.9-1.3-11.7-3.2-17.3-5.7c-5.6-2.5-11-5.6-16-9.2c-5-3.6-9.7-7.8-13.8-12.5
				c-0.5-0.7-1.1-1.4-1.9-2.1c-0.8-0.7-1.7-1-2.8-1c-2,0-3.6,0.6-4.9,1.6c-1.3,1.1-2.9,2.6-5,4.7c-0.9,0.8-1.3,1.6-1.3,2.4
				c0,0.9,0.2,1.7,0.6,2.4c0.4,0.7,1,1.5,1.7,2.2c4.9,6.3,10.3,11.7,16.2,16.3c5.9,4.5,12.2,8.3,18.8,11.2
				c6.6,2.9,13.6,5.1,20.9,6.4c7.3,1.3,14.7,2,22.3,2c11.6,0,22.5-1.4,32.7-4.3c10.2-2.8,19.1-7.1,26.7-12.7
				c7.6-5.6,13.6-12.5,18-20.8c4.4-8.3,6.6-17.9,6.6-28.9c0-7-1.2-13.1-3.5-18.4C357.4,809.9,354.2,805.2,350.2,801.2z"/>
			<path class="st0" d="M716.1,728.6c-4.9-8.5-10.9-16.2-17.8-23.1c-6.9-6.9-14.6-12.9-23.1-17.8c-8.4-4.9-17.5-8.8-27.2-11.5
				c-9.7-2.7-19.8-4.1-30.2-4.1c-10.6,0-20.7,1.4-30.4,4.1c-9.7,2.7-18.8,6.6-27.3,11.5c-8.5,4.9-16.2,10.9-23.1,17.9
				c-6.9,7-12.9,14.7-17.8,23.1c-4.9,8.4-8.8,17.5-11.5,27.2c-2.7,9.7-4,19.8-4,30.3c0,10.5,1.3,20.6,4,30.3
				c2.7,9.7,6.5,18.7,11.5,27.2c4.9,8.4,10.9,16.1,17.8,23.1c6.9,6.9,14.6,12.9,23.1,17.8c8.4,5,17.5,8.8,27.2,11.5
				c9.7,2.7,19.8,4,30.3,4c10.5,0,20.6-1.4,30.3-4c9.7-2.7,18.8-6.5,27.2-11.5c8.4-4.9,16.1-10.8,23.1-17.7
				c6.9-6.9,12.9-14.6,17.8-23c4.9-8.4,8.8-17.5,11.5-27.2c2.8-9.7,4.1-19.8,4.1-30.2c0-10.5-1.4-20.6-4.1-30.4
				C724.9,746.2,721,737.1,716.1,728.6z M710.8,811.8c-2.3,8.2-5.5,15.9-9.7,23.1c-4.2,7.2-9.2,13.6-15.1,19.5
				c-5.9,5.8-12.4,10.9-19.5,15c-7.1,4.2-14.8,7.4-23,9.7c-8.2,2.3-16.7,3.4-25.6,3.4c-13.4,0-25.9-2.5-37.7-7.6
				c-11.7-5-22-11.9-30.7-20.7c-8.7-8.7-15.6-18.9-20.7-30.6c-5-11.7-7.6-24.2-7.6-37.6c0-8.8,1.1-17.3,3.4-25.5
				c2.3-8.2,5.5-15.9,9.7-23.1c4.2-7.1,9.2-13.6,15-19.5c5.8-5.9,12.4-10.9,19.5-15.1c7.2-4.2,14.9-7.4,23.1-9.7
				c8.2-2.3,16.8-3.5,25.7-3.5c13.3,0,25.8,2.6,37.4,7.7c11.7,5.1,21.9,12,30.6,20.7c8.7,8.7,15.6,18.9,20.7,30.6
				c5.1,11.7,7.6,24.2,7.6,37.4C714.2,795,713.1,803.6,710.8,811.8z"/>
			<path class="st0" d="M904.1,738.1c4.2-7.2,9.2-13.8,15.1-19.8c5.9-6,12.4-11.2,19.7-15.5c7.2-4.3,15-7.7,23.4-10.1
				c8.4-2.4,17.2-3.6,26.3-3.6c10.5,0,20.6,1.8,30.2,5.3c9.7,3.5,18.8,8.5,27.4,14.8c2.8,2,4.9,2.9,6.2,2.8c1.4-0.1,2.7-1.1,4-2.8
				l4-5.1c1-1.2,1.4-2.5,1.1-4c-0.3-1.4-1.3-2.7-3.1-3.8c-4-3.2-8.1-6-12.4-8.5c-4.3-2.5-8.8-4.8-13.6-6.9c-14-6-28.7-9-44.2-9
				c-10.6,0-20.8,1.4-30.5,4.1c-9.8,2.8-18.9,6.6-27.5,11.5c-8.5,5-16.3,10.9-23.2,17.8c-6.9,6.9-12.9,14.6-17.9,23
				c-5,8.4-8.8,17.5-11.5,27.3c-2.7,9.7-4,19.8-4,30.2c0,10.6,1.4,20.8,4.1,30.5c2.7,9.8,6.6,18.9,11.5,27.5
				c4.9,8.5,10.9,16.3,17.9,23.2c7,6.9,14.7,12.9,23.1,17.9c8.4,5,17.5,8.8,27.3,11.5c9.7,2.7,19.8,4,30.2,4
				c15.8,0,30.7-2.9,44.8-8.8c4.6-2,9-4.2,13.3-6.7c4.2-2.5,8.3-5.2,12.1-8.1c1.8-1.2,2.8-2.7,2.9-4.5c0.1-1.8-0.2-3.4-1-4.8
				l-2.2-3.6c-1.4-2.2-2.9-3.4-4.6-3.7c-1.6-0.3-3.2,0.2-4.7,1.3c-4.2,3.5-8.8,6.6-13.9,9.4c-5,2.7-10.2,5.1-15.5,7
				c-5.3,1.9-10.6,3.3-16.1,4.3c-5.4,1-10.7,1.5-15.8,1.5c-8.4,0-16.6-1.2-24.6-3.7c-8-2.4-15.5-5.9-22.6-10.3
				c-7.1-4.4-13.6-9.6-19.6-15.6c-6-6-11.2-12.7-15.5-19.9c-4.3-7.2-7.7-15-10.2-23.2c-2.4-8.2-3.7-16.6-3.7-25.2
				c0-8.5,1.1-16.8,3.4-24.9C896.6,752.9,899.9,745.3,904.1,738.1z"/>
			<path class="st0" d="M1220.3,674.7h-6.1c-3.7,0-5.5,1.8-5.5,5.4v211.7c0,3.6,1.8,5.4,5.5,5.4h6.1c3.7,0,5.5-1.8,5.5-5.4V680.1
				c0-1.7-0.5-3-1.4-4C1223.4,675.2,1222.1,674.7,1220.3,674.7z"/>
			<path class="st0" d="M1568.4,890.3l-88.3-212c-0.6-1.1-1.3-2-2.1-2.8c-0.8-0.8-2.1-1.2-3.7-1.2h-4.3c-1.6,0-2.8,0.4-3.7,1.2
				c-0.8,0.8-1.5,1.8-2,3.1c-2.1,4.9-4.2,9.9-6.4,15.1c-2.1,5.2-4.7,11.2-7.6,18c-2.9,6.8-6.2,14.8-10,23.9
				c-3.8,9.1-8.3,19.9-13.6,32.5c-5.3,12.6-11.4,27.2-18.4,44c-7,16.8-15.1,36.2-24.3,58.4c-1.4,3.3-2.8,6.8-4.3,10.4
				c-1.4,3.7-2.9,7.4-4.3,11.2c-0.1,0.3-0.2,0.7-0.2,1.2c0,2.2,1.6,3.4,4.6,3.7h6.4c0.4,0.1,0.9,0.2,1.5,0.2c2.5,0,4.2-1.3,5.2-3.9
				c3.5-8.8,7-17.5,10.6-26.1c3.5-8.6,7.1-17.2,10.7-25.9h115.3L1551,893c1.1,2.9,2.9,4.3,5.5,4.3c0.2,0,0.4,0,0.6-0.1
				c0.2-0.1,0.4-0.1,0.6-0.1h6.4c3.1-0.5,4.6-1.8,4.6-4c0-0.4-0.1-0.9-0.2-1.6C1568.5,891,1568.4,890.5,1568.4,890.3z M1421.5,824.3
				c8.5-20.8,16.9-41.3,25.3-61.7c8.4-20.4,16.8-40.9,25.3-61.7l50.5,123.4H1421.5z"/>
			<path class="st0" d="M1859,881.6c-1-0.9-2.3-1.4-4-1.4h-118.4v-200c0-3.6-1.8-5.4-5.4-5.4h-6.1c-1.9,0-3.3,0.5-4.3,1.5
				c-0.9,1-1.4,2.3-1.4,3.9v211.7c0,1.8,0.5,3.2,1.5,4c1,0.9,2.3,1.3,4,1.3H1855c1.7,0,3-0.5,4-1.4c1-0.9,1.5-2.3,1.5-4v-6.1
				C1860.5,883.9,1860,882.5,1859,881.6z"/>
		</g>
		<path class="st0" d="M1201,402.7c-7-10.4-15.3-19.8-24.8-27.9c-7.2-6.2-15-11.4-23.2-15.5c13-9.9,23.7-22.2,32-36.7
			c9.9-17.2,14.9-36.7,14.9-57.8c0-17.2-3.2-33.2-9.6-47.8c-6.4-14.5-15.3-27.3-26.4-38c-11.1-10.7-24.3-19.2-39.2-25.2
			c-15-6.1-31.2-9.1-48.3-9.1H898.9c-1.9,0-3.6,0.7-5,1.9c-4.1,0.9-10.1,4.1-10.1,14.7v428.9l0,0.6c0.9,7.9,6,12.7,14.1,13.3
			l201.7,0h0c17.2-0.2,33.5-3.9,48.7-11.1c15-7.1,28.2-16.6,39.2-28.3c10.9-11.7,19.7-25.4,26.1-40.7c6.4-15.4,9.6-31.7,9.6-48.6
			c0-12.9-2-25.8-5.8-38.1C1213.5,424.7,1208,413.1,1201,402.7z M928.8,559.4V388.3h168.7c10.6,0,20.9,2.4,30.5,7.2
			c9.7,4.8,18.4,11.4,25.7,19.5c7.3,8.2,13.3,17.7,17.7,28.2c4.4,10.4,6.6,21.2,6.6,32.2c0,11.2-2.1,21.9-6.3,31.9
			c-4.2,10.1-9.9,19.1-17,26.8c-7.1,7.7-15.5,13.8-25.1,18.4c-9.4,4.4-19.5,6.9-30,7.4v-0.3H928.8z M1107,337.8
			c-9.6,4-20,6.1-31,6.1H928.8V189.1H1076c11.2,0,21.7,1.9,31.2,5.7c9.5,3.8,17.9,9.1,25,15.7c7,6.6,12.6,14.7,16.7,23.9
			c4,9.2,6.1,19.5,6.1,30.6c0,11.1-2,21.6-6.1,31.1c-4.1,9.5-9.7,17.9-16.7,25C1125.1,328.1,1116.6,333.8,1107,337.8z"/>
		<g>
			<path class="st1" d="M617.8,175.5c1.3-4.3,1.3-8-0.1-11.1c-1.6-3.6-5.3-5.9-11-6.7l-16.5-0.1c-4.1-0.2-7.4,0.9-10,3.3
				c-2.1,1.9-3.8,4.5-5.3,8L426.3,527.9c-12.7-30.5-25.3-60.8-37.9-91c-13.7-32.8-27.7-66.6-41.8-100.6l66.8-159.8
				c1.9-4.3,3.7-9.8,0.7-13.9c-2.1-2.9-5.8-4.2-12.3-4.5h-13.9c-5.6,0-8.7,2.4-10.4,4.4c-1.6,1.9-2.7,3.5-3.5,4.7l-0.2,0.3
				L222.9,528c-24.2-58.2-48.3-116.1-72.2-173.8C125.5,293.3,99.8,231,74.5,169.1c-4-9.2-10.2-11.2-14.8-11.2H43.2l-0.7,0
				c-11.2,1.6-12.5,8.7-12.5,11.7c0,1.2,0.2,2.6,0.6,4.1c0.2,0.8,0.3,1.1,0.3,1.1v1L202,586.1c1,3,2.7,5.7,5,7.8
				c2.7,2.6,6.4,3.9,11,3.9h7.8c3.4,0,6.5-0.8,9.4-2.4c3.3-1.8,5.6-5,7-9.4l81.6-195.7l82,195.4c0.7,3.4,2.3,6.3,5,8.5
				c2.8,2.3,6.6,3.5,11.2,3.5h8.7c3,0,5.7-0.7,8-2c1.8-1.1,3.3-2.2,4.6-3.5l0.3-0.3c1.3-1.6,2.4-3.6,3.2-5.8l171-410.1L617.8,175.5z
				"/>
			<path class="st1" d="M805.3,341.7c-12.5-13.2-27.3-23.8-43.9-31.6c-16.7-7.8-34.6-11.7-53.2-11.7c-19.5,0-38.1,4.1-55.2,12
				c-17,7.9-32.1,19-44.9,32.8c-12.8,13.8-23,30.2-30.3,48.7c-7.3,18.5-11.1,38.5-11.1,59.5c0,20.8,3.8,40.5,11.2,58.7
				c7.4,18.1,17.7,34.3,30.6,47.9c12.9,13.7,28.3,24.8,45.6,32.9c17.4,8.2,36.3,12.5,56.3,12.9h0.3c20.4,0,39.8-3.8,57.6-11.4
				c17.6-7.5,33.4-17.8,47-30.8c6.1-4.2,9.1-8.9,8.9-13.8c-0.1-4.2-1.9-8.6-5.2-13.2l-4.6-6c-3.8-5.2-8.4-6.4-11.6-6.5l-0.4,0
				c-4.3,0-8.3,1.9-11.6,5.4c-10.1,10.3-22.2,18.6-35.9,24.8c-13.6,6.1-28.4,9.2-44,9.2h-0.7c-13.2-0.4-25.7-3.1-37.4-8.3
				c-11.7-5.1-22.2-12.1-31.1-20.9c-9-8.8-16.3-19.2-21.9-31c-4.8-10.2-7.9-21.3-9.1-33h207.1c7.3,0,13.6-1.3,18.6-3.9
				c4.2-2.2,9.3-7.1,9.3-18.6c0-20.2-3.7-39.5-10.9-57.4C827.8,370.6,817.8,354.9,805.3,341.7z M707.4,341.2
				c11.6,0,22.9,2.4,33.6,7.1c10.8,4.7,20.6,11.4,29.1,19.8c8.5,8.4,15.8,18.4,21.6,29.8c4.9,9.6,8.3,19.8,10.3,30.6H612.7
				c2.4-10.9,6-21.3,10.9-30.9c5.8-11.3,13-21.3,21.4-29.6c8.4-8.3,18-14.9,28.7-19.6C684.4,343.5,695.7,341.2,707.4,341.2z"/>
		</g>
		<g>
			<path class="st0" d="M1655,166.4c-66.8,0-83.2,98.7-83.8,102.9c-0.2,1.3,0.7,2.6,2,2.8l27.5,4.3c0.1,0,0.3,0,0.4,0
				c1.2,0,2.2-0.8,2.4-2.1c0.1-0.7,13.3-75.3,51.6-75.3c1.3,0,2.4-1.1,2.4-2.4v-27.8C1657.4,167.5,1656.4,166.4,1655,166.4z"/>
			<path class="st0" d="M1465.3,166.4c-1.3,0-2.4,1.1-2.4,2.4v27.8c0,1.4,1.1,2.4,2.4,2.4c38,0,51.5,74.6,51.6,75.4
				c0.2,1.2,1.2,2,2.4,2c0.1,0,0.3,0,0.4,0l27.5-4.4c1.3-0.2,2.2-1.5,2-2.8C1548.5,265.1,1532.1,166.4,1465.3,166.4z"/>
		</g>
		<g>
			<g>
				<path class="st2" d="M1560.2,628.8c-7,0-12.7-5.7-12.7-12.7v-24.4c0-7,5.7-12.7,12.7-12.7c7,0,12.7,5.7,12.7,12.7v24.4
					C1572.8,623.1,1567.1,628.8,1560.2,628.8z"/>
			</g>
			<g>
				<g>
					<path class="st2" d="M1505.8,479.6c-6.7,0-12.2,5.5-12.2,12.2v11.2c0,6.7,5.5,12.2,12.2,12.2h108.6c6.7,0,12.2-5.5,12.2-12.2
						v-11.2c0-6.7-5.5-12.2-12.2-12.2H1505.8z"/>
				</g>
				<g>
					<path class="st2" d="M1527.7,553c0,6.7,5.5,12.2,12.2,12.2h40.5c6.7,0,12.2-5.5,12.2-12.2v-11.2c0-6.7-5.5-12.2-12.2-12.2
						h-40.5c-6.7,0-12.2,5.5-12.2,12.2V553z"/>
				</g>
			</g>
			<g>
				<path class="st0" d="M1572.9,621.1c0,4.2-3.4,7.6-7.6,7.6H1555c-4.2,0-7.6-3.4-7.6-7.6v-34.5c0-4.2,3.4-7.6,7.6-7.6h10.2
					c4.2,0,7.6,3.4,7.6,7.6V621.1z"/>
			</g>
		</g>
		<g>
			<path class="st0" d="M1516.6,386.5c-7.2-17.9-17.3-33.6-29.8-46.8c-12.5-13.2-27.3-23.9-43.9-31.6c-16.7-7.8-34.6-11.7-53.1-11.7
				c-19.5,0-38.1,4.1-55.2,12c-17,7.9-32.1,19-44.9,32.8c-12.8,13.8-23,30.2-30.3,48.7c-7.3,18.5-11,38.5-11,59.5
				c0,20.8,3.8,40.5,11.2,58.7c7.4,18.1,17.7,34.2,30.6,47.9c12.9,13.7,28.3,24.8,45.6,32.9c17.4,8.2,36.3,12.5,56.3,12.9h0.3
				c20.4,0,39.8-3.8,57.6-11.4c17.6-7.5,33.4-17.8,47-30.8c6.1-4.2,9.1-8.9,9-13.8c-0.1-4.2-1.9-8.6-5.2-13.2l-4.6-6
				c-3.8-5.2-8.4-6.5-11.6-6.6l-0.5,0c-4.3,0-8.2,1.9-11.6,5.4c-10.1,10.3-22.2,18.6-35.9,24.8c-13.6,6.1-28.4,9.2-44,9.2h-0.7
				c-13.1-0.4-25.7-3.1-37.4-8.2c-11.7-5.1-22.2-12.1-31.1-20.9c-9-8.8-16.3-19.2-21.9-31c-6.2-13-9.3-25.5-9.5-38.2
				c-0.1-7.9,0.5-25.8,1.1-28.7c2.6-14,6.6-26.1,12.1-36.9c5.8-11.3,13-21.3,21.4-29.6c8.4-8.3,18-14.9,28.7-19.6
				c10.6-4.7,21.9-7.1,33.6-7.1c11.6,0,22.9,2.4,33.6,7.1c10.8,4.7,20.6,11.4,29.1,19.8c8.5,8.4,15.8,18.4,21.6,29.8
				c4.9,9.6,8.4,19.8,10.3,30.6h-22h-125.9c-6.7,0-12.2,5.5-12.2,12.2v15.5c0,6.7,5.5,12.2,12.2,12.2h125.9h38
				c7.3,0,13.6-1.3,18.6-3.9c4.2-2.2,9.3-7.1,9.3-18.6C1527.5,423.7,1523.8,404.4,1516.6,386.5z"/>
			<path class="st0" d="M1603.7,386.5c7.2-17.9,17.3-33.6,29.8-46.8c12.5-13.2,27.3-23.9,43.9-31.6c16.7-7.8,34.6-11.7,53.1-11.7
				c19.5,0,38.1,4.1,55.2,12c17,7.9,32.1,19,44.9,32.8c12.8,13.8,23,30.2,30.3,48.7c7.3,18.5,11,38.5,11,59.5
				c0,20.8-3.8,40.5-11.2,58.7c-7.4,18.1-17.7,34.2-30.6,47.9c-12.9,13.7-28.3,24.8-45.6,32.9c-17.4,8.2-36.3,12.5-56.3,12.9h-0.3
				c-20.4,0-39.8-3.8-57.6-11.4c-17.6-7.5-33.4-17.8-47-30.8c-6.1-4.2-9.1-8.9-9-13.8c0.1-4.2,1.9-8.6,5.2-13.2l4.6-6
				c3.8-5.2,8.4-6.5,11.6-6.6l0.5,0c4.3,0,8.2,1.9,11.6,5.4c10.1,10.3,22.2,18.6,35.9,24.8c13.6,6.1,28.4,9.2,44,9.2h0.7
				c13.1-0.4,25.7-3.1,37.4-8.2c11.7-5.1,22.2-12.1,31.1-20.9c9-8.8,16.3-19.2,21.9-31c6.2-13,9.3-25.5,9.5-38.2
				c0.1-7.9-0.5-25.8-1.1-28.7c-2.6-14-6.6-26.1-12.1-36.9c-5.8-11.3-13-21.3-21.4-29.6c-8.4-8.3-18-14.9-28.7-19.6
				c-10.6-4.7-21.9-7.1-33.6-7.1c-11.6,0-22.9,2.4-33.6,7.1c-10.8,4.7-20.6,11.4-29.1,19.8c-8.5,8.4-15.8,18.4-21.6,29.8
				c-4.9,9.6-8.4,19.8-10.3,30.6h22h125.9c6.7,0,12.2,5.5,12.2,12.2v15.5c0,6.7-5.5,12.2-12.2,12.2h-125.9h-38
				c-7.3,0-13.6-1.3-18.6-3.9c-4.2-2.2-9.3-7.1-9.3-18.6C1592.8,423.7,1596.5,404.4,1603.7,386.5z"/>
		</g>
	</g>
</g>
</svg>
