<?xml version="1.0" encoding="utf-8"?>
<!-- Generator: Adobe Illustrator 24.3.0, SVG Export Plug-In . SVG Version: 6.00 Build 0)  -->
<svg version="1.1" id="Layer_1" xmlns="http://www.w3.org/2000/svg" xmlns:xlink="http://www.w3.org/1999/xlink" x="0px" y="0px"
	 viewBox="0 0 468.1 349" style="enable-background:new 0 0 468.1 349;" xml:space="preserve">
<style type="text/css">
	.st0{fill:#282425;}
	.st1{fill:#FBD405;}
</style>
<g>
	<path class="st0" d="M305,1.1c-49.8,0-62,73.6-62.5,76.8c-0.2,1,0.5,1.9,1.5,2.1l20.5,3.2c0.1,0,0.2,0,0.3,0c0.9,0,1.6-0.6,1.8-1.5
		c0.1-0.6,10-56.2,38.5-56.2c1,0,1.8-0.8,1.8-1.8V2.9C306.8,1.9,306,1.1,305,1.1z"/>
	<path class="st0" d="M163.5,1.1c-1,0-1.8,0.8-1.8,1.8v20.7c0,1,0.8,1.8,1.8,1.8c28.3,0,38.4,55.6,38.5,56.2
		c0.1,0.9,0.9,1.5,1.8,1.5c0.1,0,0.2,0,0.3,0l20.5-3.2c1-0.2,1.7-1.1,1.5-2.1C225.6,74.7,213.4,1.1,163.5,1.1z"/>
</g>
<g>
	<g>
		<path class="st1" d="M234.3,345.9c-5.2,0-9.4-4.2-9.4-9.4v-18.2c0-5.2,4.2-9.4,9.4-9.4c5.2,0,9.4,4.2,9.4,9.4v18.2
			C243.7,341.6,239.5,345.9,234.3,345.9z"/>
	</g>
	<g>
		<g>
			<path class="st1" d="M193.8,234.7c-5,0-9.1,4.1-9.1,9.1v8.4c0,5,4.1,9.1,9.1,9.1h81c5,0,9.1-4.1,9.1-9.1v-8.4
				c0-5-4.1-9.1-9.1-9.1H193.8z"/>
		</g>
		<g>
			<path class="st1" d="M210,289.4c0,5,4.1,9.1,9.1,9.1h30.2c5,0,9.1-4.1,9.1-9.1V281c0-5-4.1-9.1-9.1-9.1h-30.2
				c-5,0-9.1,4.1-9.1,9.1L210,289.4L210,289.4z"/>
		</g>
	</g>
	<g>
		<path class="st0" d="M243.8,340.2c0,3.1-2.6,5.7-5.7,5.7h-7.6c-3.1,0-5.7-2.6-5.7-5.7v-25.7c0-3.1,2.6-5.7,5.7-5.7h7.6
			c3.1,0,5.7,2.6,5.7,5.7V340.2z"/>
	</g>
</g>
<g>
	<path class="st0" d="M201.8,165.2c-5.4-13.3-12.9-25.1-22.2-34.9c-9.3-9.9-20.4-17.8-32.7-23.6c-12.5-5.8-25.8-8.8-39.6-8.8
		c-14.6,0-28.4,3-41.2,9c-12.7,5.9-23.9,14.1-33.5,24.4c-9.5,10.3-17.2,22.5-22.6,36.3c-5.5,13.8-8.2,28.8-8.2,44.4
		c0,15.5,2.8,30.2,8.4,43.8c5.5,13.5,13.2,25.5,22.8,35.8c9.6,10.2,21.1,18.5,34,24.5c13,6.1,27.1,9.3,42,9.6h0.2
		c15.2,0,29.7-2.8,43-8.5c13.1-5.6,24.9-13.3,35.1-23c4.5-3.2,6.8-6.6,6.7-10.3c-0.1-3.1-1.4-6.4-3.9-9.8l-3.4-4.5
		c-2.9-3.9-6.3-4.8-8.7-4.9l-0.3,0c-3.2,0-6.1,1.4-8.6,4c-7.5,7.7-16.5,13.9-26.8,18.5c-10.2,4.6-21.2,6.9-32.8,6.9h-0.5
		c-9.8-0.3-19.2-2.3-27.9-6.1c-8.7-3.8-16.5-9.1-23.2-15.6c-6.7-6.5-12.2-14.3-16.4-23.1c-4.6-9.7-6.9-19-7.1-28.5
		c-0.1-5.9,0.4-19.3,0.8-21.4c2-10.5,4.9-19.5,9-27.5c4.3-8.4,9.7-15.9,16-22.1c6.2-6.2,13.4-11.1,21.4-14.6
		c7.9-3.5,16.3-5.3,25.1-5.3c8.6,0,17.1,1.8,25.1,5.3c8.1,3.5,15.4,8.5,21.7,14.7c6.4,6.3,11.8,13.8,16.1,22.2
		c3.6,7.1,6.2,14.8,7.7,22.8h-16.4H66.8c-5,0-9.1,4.1-9.1,9.1v11.5c0,5,4.1,9.1,9.1,9.1h93.9h28.4c5.5,0,10.1-1,13.9-2.9
		c3.2-1.6,6.9-5.3,6.9-13.8C209.9,192.9,207.2,178.5,201.8,165.2z"/>
	<path class="st0" d="M266.8,165.2c5.4-13.3,12.9-25.1,22.2-34.9c9.3-9.9,20.3-17.8,32.7-23.6c12.5-5.8,25.8-8.8,39.6-8.8
		c14.6,0,28.4,3,41.2,9c12.7,5.9,23.9,14.1,33.5,24.4c9.5,10.3,17.2,22.5,22.6,36.3c5.5,13.8,8.2,28.8,8.2,44.4
		c0,15.5-2.8,30.2-8.4,43.8c-5.5,13.5-13.2,25.5-22.8,35.8c-9.6,10.2-21.1,18.5-34,24.5c-13,6.1-27.1,9.3-42,9.6h-0.2
		c-15.2,0-29.7-2.8-43-8.5c-13.1-5.6-24.9-13.3-35.1-23c-4.5-3.2-6.8-6.6-6.7-10.3c0.1-3.1,1.4-6.4,3.9-9.8l3.4-4.5
		c2.9-3.9,6.3-4.8,8.7-4.9l0.3,0c3.2,0,6.2,1.4,8.6,4c7.5,7.7,16.5,13.9,26.8,18.5c10.2,4.6,21.2,6.9,32.8,6.9h0.5
		c9.8-0.3,19.2-2.3,27.9-6.1c8.7-3.8,16.5-9.1,23.2-15.6c6.7-6.5,12.2-14.3,16.3-23.1c4.6-9.7,6.9-19,7.1-28.5
		c0.1-5.9-0.4-19.3-0.8-21.4c-2-10.5-4.9-19.5-9-27.5c-4.3-8.4-9.7-15.9-16-22.1c-6.2-6.2-13.4-11.1-21.4-14.6
		c-7.9-3.5-16.3-5.3-25.1-5.3c-8.6,0-17.1,1.8-25.1,5.3c-8.1,3.5-15.4,8.5-21.7,14.7c-6.4,6.3-11.8,13.8-16.1,22.2
		c-3.7,7.1-6.2,14.8-7.7,22.8h16.4h93.9c5,0,9.1,4.1,9.1,9.1v11.5c0,5-4.1,9.1-9.1,9.1h-93.9h-28.4c-5.5,0-10.2-1-13.9-2.9
		c-3.2-1.6-6.9-5.3-6.9-13.8C258.6,192.9,261.4,178.5,266.8,165.2z"/>
</g>
</svg>
